<svg width="1363" height="163" viewBox="0 0 1363 163" fill="none" xmlns="http://www.w3.org/2000/svg">
<path d="M0 15C0 6.71573 6.71573 0 15 0H37V163H15C6.71573 163 0 156.284 0 148V15Z" fill="#424242"/>
<rect width="1097" height="163" transform="translate(37)" fill="#F0F0F0"/>
<path d="M101.906 53.9219L94.3945 51.2383V48.0859L104.602 52.375V54.6367L101.906 53.9219ZM94.3945 56.1719L101.918 53.4297L104.602 52.7852V55.0352L94.3945 59.3242V56.1719ZM114.504 43.9375H117.48L121.863 56.4648L126.246 43.9375H129.223L123.059 61H120.668L114.504 43.9375ZM112.898 43.9375H115.863L116.402 56.1484V61H112.898V43.9375ZM127.863 43.9375H130.84V61H127.324V56.1484L127.863 43.9375ZM139.547 61.2344C138.562 61.2344 137.68 61.0781 136.898 60.7656C136.117 60.4453 135.453 60.0039 134.906 59.4414C134.367 58.8789 133.953 58.2266 133.664 57.4844C133.375 56.7344 133.23 55.9375 133.23 55.0938V54.625C133.23 53.6641 133.367 52.7852 133.641 51.9883C133.914 51.1914 134.305 50.5 134.812 49.9141C135.328 49.3281 135.953 48.8789 136.688 48.5664C137.422 48.2461 138.25 48.0859 139.172 48.0859C140.07 48.0859 140.867 48.2344 141.562 48.5312C142.258 48.8281 142.84 49.25 143.309 49.7969C143.785 50.3438 144.145 51 144.387 51.7656C144.629 52.5234 144.75 53.3672 144.75 54.2969V55.7031H134.672V53.4531H141.434V53.1953C141.434 52.7266 141.348 52.3086 141.176 51.9414C141.012 51.5664 140.762 51.2695 140.426 51.0508C140.09 50.832 139.66 50.7227 139.137 50.7227C138.691 50.7227 138.309 50.8203 137.988 51.0156C137.668 51.2109 137.406 51.4844 137.203 51.8359C137.008 52.1875 136.859 52.6016 136.758 53.0781C136.664 53.5469 136.617 54.0625 136.617 54.625V55.0938C136.617 55.6016 136.688 56.0703 136.828 56.5C136.977 56.9297 137.184 57.3008 137.449 57.6133C137.723 57.9258 138.051 58.168 138.434 58.3398C138.824 58.5117 139.266 58.5977 139.758 58.5977C140.367 58.5977 140.934 58.4805 141.457 58.2461C141.988 58.0039 142.445 57.6406 142.828 57.1562L144.469 58.9375C144.203 59.3203 143.84 59.6875 143.379 60.0391C142.926 60.3906 142.379 60.6797 141.738 60.9062C141.098 61.125 140.367 61.2344 139.547 61.2344ZM150.047 50.9453V61H146.66V48.3203H149.836L150.047 50.9453ZM149.578 54.2148H148.641C148.641 53.332 148.746 52.5195 148.957 51.7773C149.176 51.0273 149.492 50.3789 149.906 49.832C150.328 49.2773 150.848 48.8477 151.465 48.543C152.082 48.2383 152.797 48.0859 153.609 48.0859C154.172 48.0859 154.688 48.1719 155.156 48.3438C155.625 48.5078 156.027 48.7695 156.363 49.1289C156.707 49.4805 156.973 49.9414 157.16 50.5117C157.348 51.0742 157.441 51.75 157.441 52.5391V61H154.066V52.9141C154.066 52.3359 153.988 51.8906 153.832 51.5781C153.676 51.2656 153.453 51.0469 153.164 50.9219C152.883 50.7969 152.543 50.7344 152.145 50.7344C151.707 50.7344 151.324 50.8242 150.996 51.0039C150.676 51.1836 150.41 51.4336 150.199 51.7539C149.988 52.0664 149.832 52.4336 149.73 52.8555C149.629 53.2773 149.578 53.7305 149.578 54.2148ZM157.125 53.8281L155.918 53.9805C155.918 53.1523 156.02 52.3828 156.223 51.6719C156.434 50.9609 156.742 50.3359 157.148 49.7969C157.562 49.2578 158.074 48.8398 158.684 48.543C159.293 48.2383 159.996 48.0859 160.793 48.0859C161.402 48.0859 161.957 48.1758 162.457 48.3555C162.957 48.5273 163.383 48.8047 163.734 49.1875C164.094 49.5625 164.367 50.0547 164.555 50.6641C164.75 51.2734 164.848 52.0195 164.848 52.9023V61H161.461V52.9023C161.461 52.3164 161.383 51.8711 161.227 51.5664C161.078 51.2539 160.859 51.0391 160.57 50.9219C160.289 50.7969 159.953 50.7344 159.562 50.7344C159.156 50.7344 158.801 50.8164 158.496 50.9805C158.191 51.1367 157.938 51.3555 157.734 51.6367C157.531 51.918 157.379 52.2461 157.277 52.6211C157.176 52.9883 157.125 53.3906 157.125 53.8281ZM166.922 54.7891V54.543C166.922 53.6133 167.055 52.7578 167.32 51.9766C167.586 51.1875 167.973 50.5039 168.48 49.9258C168.988 49.3477 169.613 48.8984 170.355 48.5781C171.098 48.25 171.949 48.0859 172.91 48.0859C173.871 48.0859 174.727 48.25 175.477 48.5781C176.227 48.8984 176.855 49.3477 177.363 49.9258C177.879 50.5039 178.27 51.1875 178.535 51.9766C178.801 52.7578 178.934 53.6133 178.934 54.543V54.7891C178.934 55.7109 178.801 56.5664 178.535 57.3555C178.27 58.1367 177.879 58.8203 177.363 59.4062C176.855 59.9844 176.23 60.4336 175.488 60.7539C174.746 61.0742 173.895 61.2344 172.934 61.2344C171.973 61.2344 171.117 61.0742 170.367 60.7539C169.625 60.4336 168.996 59.9844 168.48 59.4062C167.973 58.8203 167.586 58.1367 167.32 57.3555C167.055 56.5664 166.922 55.7109 166.922 54.7891ZM170.297 54.543V54.7891C170.297 55.3203 170.344 55.8164 170.438 56.2773C170.531 56.7383 170.68 57.1445 170.883 57.4961C171.094 57.8398 171.367 58.1094 171.703 58.3047C172.039 58.5 172.449 58.5977 172.934 58.5977C173.402 58.5977 173.805 58.5 174.141 58.3047C174.477 58.1094 174.746 57.8398 174.949 57.4961C175.152 57.1445 175.301 56.7383 175.395 56.2773C175.496 55.8164 175.547 55.3203 175.547 54.7891V54.543C175.547 54.0273 175.496 53.543 175.395 53.0898C175.301 52.6289 175.148 52.2227 174.938 51.8711C174.734 51.5117 174.465 51.2305 174.129 51.0273C173.793 50.8242 173.387 50.7227 172.91 50.7227C172.434 50.7227 172.027 50.8242 171.691 51.0273C171.363 51.2305 171.094 51.5117 170.883 51.8711C170.68 52.2227 170.531 52.6289 170.438 53.0898C170.344 53.543 170.297 54.0273 170.297 54.543ZM188.801 43.9375H191.777L196.16 56.4648L200.543 43.9375H203.52L197.355 61H194.965L188.801 43.9375ZM187.195 43.9375H190.16L190.699 56.1484V61H187.195V43.9375ZM202.16 43.9375H205.137V61H201.621V56.1484L202.16 43.9375ZM214.852 58.1406V52.4922C214.852 52.0859 214.785 51.7383 214.652 51.4492C214.52 51.1523 214.312 50.9219 214.031 50.7578C213.758 50.5938 213.402 50.5117 212.965 50.5117C212.59 50.5117 212.266 50.5781 211.992 50.7109C211.719 50.8359 211.508 51.0195 211.359 51.2617C211.211 51.4961 211.137 51.7734 211.137 52.0938H207.762C207.762 51.5547 207.887 51.043 208.137 50.5586C208.387 50.0742 208.75 49.6484 209.227 49.2812C209.703 48.9062 210.27 48.6133 210.926 48.4023C211.59 48.1914 212.332 48.0859 213.152 48.0859C214.137 48.0859 215.012 48.25 215.777 48.5781C216.543 48.9062 217.145 49.3984 217.582 50.0547C218.027 50.7109 218.25 51.5312 218.25 52.5156V57.9414C218.25 58.6367 218.293 59.207 218.379 59.6523C218.465 60.0898 218.59 60.4727 218.754 60.8008V61H215.344C215.18 60.6562 215.055 60.2266 214.969 59.7109C214.891 59.1875 214.852 58.6641 214.852 58.1406ZM215.297 53.2773L215.32 55.1875H213.434C212.988 55.1875 212.602 55.2383 212.273 55.3398C211.945 55.4414 211.676 55.5859 211.465 55.7734C211.254 55.9531 211.098 56.1641 210.996 56.4062C210.902 56.6484 210.855 56.9141 210.855 57.2031C210.855 57.4922 210.922 57.7539 211.055 57.9883C211.188 58.2148 211.379 58.3945 211.629 58.5273C211.879 58.6523 212.172 58.7148 212.508 58.7148C213.016 58.7148 213.457 58.6133 213.832 58.4102C214.207 58.207 214.496 57.957 214.699 57.6602C214.91 57.3633 215.02 57.082 215.027 56.8164L215.918 58.2461C215.793 58.5664 215.621 58.8984 215.402 59.2422C215.191 59.5859 214.922 59.9102 214.594 60.2148C214.266 60.5117 213.871 60.7578 213.41 60.9531C212.949 61.1406 212.402 61.2344 211.77 61.2344C210.965 61.2344 210.234 61.0742 209.578 60.7539C208.93 60.4258 208.414 59.9766 208.031 59.4062C207.656 58.8281 207.469 58.1719 207.469 57.4375C207.469 56.7734 207.594 56.1836 207.844 55.668C208.094 55.1523 208.461 54.7188 208.945 54.3672C209.438 54.0078 210.051 53.7383 210.785 53.5586C211.52 53.3711 212.371 53.2773 213.34 53.2773H215.297ZM227.062 48.3203V50.7109H219.68V48.3203H227.062ZM221.508 45.1914H224.883V57.1797C224.883 57.5469 224.93 57.8281 225.023 58.0234C225.125 58.2188 225.273 58.3555 225.469 58.4336C225.664 58.5039 225.91 58.5391 226.207 58.5391C226.418 58.5391 226.605 58.5312 226.77 58.5156C226.941 58.4922 227.086 58.4688 227.203 58.4453L227.215 60.9297C226.926 61.0234 226.613 61.0977 226.277 61.1523C225.941 61.207 225.57 61.2344 225.164 61.2344C224.422 61.2344 223.773 61.1133 223.219 60.8711C222.672 60.6211 222.25 60.2227 221.953 59.6758C221.656 59.1289 221.508 58.4102 221.508 57.5195V45.1914ZM234.82 61.2344C233.836 61.2344 232.953 61.0781 232.172 60.7656C231.391 60.4453 230.727 60.0039 230.18 59.4414C229.641 58.8789 229.227 58.2266 228.938 57.4844C228.648 56.7344 228.504 55.9375 228.504 55.0938V54.625C228.504 53.6641 228.641 52.7852 228.914 51.9883C229.188 51.1914 229.578 50.5 230.086 49.9141C230.602 49.3281 231.227 48.8789 231.961 48.5664C232.695 48.2461 233.523 48.0859 234.445 48.0859C235.344 48.0859 236.141 48.2344 236.836 48.5312C237.531 48.8281 238.113 49.25 238.582 49.7969C239.059 50.3438 239.418 51 239.66 51.7656C239.902 52.5234 240.023 53.3672 240.023 54.2969V55.7031H229.945V53.4531H236.707V53.1953C236.707 52.7266 236.621 52.3086 236.449 51.9414C236.285 51.5664 236.035 51.2695 235.699 51.0508C235.363 50.832 234.934 50.7227 234.41 50.7227C233.965 50.7227 233.582 50.8203 233.262 51.0156C232.941 51.2109 232.68 51.4844 232.477 51.8359C232.281 52.1875 232.133 52.6016 232.031 53.0781C231.938 53.5469 231.891 54.0625 231.891 54.625V55.0938C231.891 55.6016 231.961 56.0703 232.102 56.5C232.25 56.9297 232.457 57.3008 232.723 57.6133C232.996 57.9258 233.324 58.168 233.707 58.3398C234.098 58.5117 234.539 58.5977 235.031 58.5977C235.641 58.5977 236.207 58.4805 236.73 58.2461C237.262 58.0039 237.719 57.6406 238.102 57.1562L239.742 58.9375C239.477 59.3203 239.113 59.6875 238.652 60.0391C238.199 60.3906 237.652 60.6797 237.012 60.9062C236.371 61.125 235.641 61.2344 234.82 61.2344Z" fill="#888888"/>
<path d="M114.117 84.875H122.344V107.164C122.344 109.82 121.789 112.07 120.68 113.914C119.57 115.742 118.016 117.125 116.016 118.062C114.016 119 111.664 119.469 108.961 119.469C106.289 119.469 103.938 119 101.906 118.062C99.8906 117.125 98.3125 115.742 97.1719 113.914C96.0469 112.07 95.4844 109.82 95.4844 107.164V84.875H103.734V107.164C103.734 108.57 103.938 109.719 104.344 110.609C104.75 111.484 105.344 112.125 106.125 112.531C106.906 112.938 107.852 113.141 108.961 113.141C110.086 113.141 111.031 112.938 111.797 112.531C112.562 112.125 113.141 111.484 113.531 110.609C113.922 109.719 114.117 108.57 114.117 107.164V84.875ZM136.266 84.875V119H128.062V84.875H136.266ZM172.523 84.875H180.75V107.164C180.75 109.82 180.195 112.07 179.086 113.914C177.977 115.742 176.422 117.125 174.422 118.062C172.422 119 170.07 119.469 167.367 119.469C164.695 119.469 162.344 119 160.312 118.062C158.297 117.125 156.719 115.742 155.578 113.914C154.453 112.07 153.891 109.82 153.891 107.164V84.875H162.141V107.164C162.141 108.57 162.344 109.719 162.75 110.609C163.156 111.484 163.75 112.125 164.531 112.531C165.312 112.938 166.258 113.141 167.367 113.141C168.492 113.141 169.438 112.938 170.203 112.531C170.969 112.125 171.547 111.484 171.938 110.609C172.328 109.719 172.523 108.57 172.523 107.164V84.875ZM193.078 84.875L198.656 96.2188L204.234 84.875H213.609L204.094 101.797L213.867 119H204.398L198.656 107.445L192.914 119H183.422L193.219 101.797L183.68 84.875H193.078Z" fill="black"/>
<path d="M1134 0H1348C1356.28 0 1363 6.71573 1363 15V148C1363 156.284 1356.28 163 1348 163H1134V0Z" fill="#28EEA7"/>
<path d="M1248.5 111.917C1244.51 111.917 1240.55 111.13 1236.86 109.601C1233.17 108.073 1229.82 105.832 1226.99 103.008C1221.29 97.3036 1218.08 89.567 1218.08 81.5C1218.08 73.433 1221.29 65.6964 1226.99 59.9922C1232.7 54.2879 1240.43 51.0833 1248.5 51.0833C1265.23 51.0833 1278.92 63.25 1278.92 78.4583C1278.92 83.2985 1276.99 87.9405 1273.57 91.363C1270.15 94.7856 1265.51 96.7083 1260.67 96.7083H1255.19C1254.28 96.7083 1253.67 97.3167 1253.67 98.2292C1253.67 98.5333 1253.97 98.8375 1253.97 99.1417C1255.19 100.662 1255.8 102.487 1255.8 104.312C1256.1 108.571 1252.76 111.917 1248.5 111.917ZM1248.5 57.1667C1242.05 57.1667 1235.86 59.7303 1231.29 64.2937C1226.73 68.8571 1224.17 75.0464 1224.17 81.5C1224.17 87.9536 1226.73 94.1429 1231.29 98.7063C1235.86 103.27 1242.05 105.833 1248.5 105.833C1249.41 105.833 1250.02 105.225 1250.02 104.312C1250.02 103.704 1249.72 103.4 1249.72 103.096C1248.5 101.575 1247.89 100.054 1247.89 98.2292C1247.89 93.9708 1251.24 90.625 1255.5 90.625H1260.67C1263.89 90.625 1266.99 89.3432 1269.27 87.0615C1271.55 84.7798 1272.83 81.6851 1272.83 78.4583C1272.83 66.5958 1261.88 57.1667 1248.5 57.1667ZM1231.77 75.4167C1234.2 75.4167 1236.33 77.5458 1236.33 79.9792C1236.33 82.4125 1234.2 84.5417 1231.77 84.5417C1229.34 84.5417 1227.21 82.4125 1227.21 79.9792C1227.21 77.5458 1229.34 75.4167 1231.77 75.4167ZM1240.9 63.25C1243.33 63.25 1245.46 65.3792 1245.46 67.8125C1245.46 70.2458 1243.33 72.375 1240.9 72.375C1238.46 72.375 1236.33 70.2458 1236.33 67.8125C1236.33 65.3792 1238.46 63.25 1240.9 63.25ZM1256.1 63.25C1258.54 63.25 1260.67 65.3792 1260.67 67.8125C1260.67 70.2458 1258.54 72.375 1256.1 72.375C1253.67 72.375 1251.54 70.2458 1251.54 67.8125C1251.54 65.3792 1253.67 63.25 1256.1 63.25ZM1265.23 75.4167C1267.66 75.4167 1269.79 77.5458 1269.79 79.9792C1269.79 82.4125 1267.66 84.5417 1265.23 84.5417C1262.8 84.5417 1260.67 82.4125 1260.67 79.9792C1260.67 77.5458 1262.8 75.4167 1265.23 75.4167Z" fill="white"/>
</svg>
