<svg width="1363" height="163" viewBox="0 0 1363 163" fill="none" xmlns="http://www.w3.org/2000/svg">
<path d="M0 15C0 6.71573 6.71573 0 15 0H37V163H15C6.71573 163 0 156.284 0 148V15Z" fill="#C665FF"/>
<rect width="1097" height="163" transform="translate(37)" fill="#F0F0F0"/>
<path d="M101.906 53.9219L94.3945 51.2383V48.0859L104.602 52.375V54.6367L101.906 53.9219ZM94.3945 56.1719L101.918 53.4297L104.602 52.7852V55.0352L94.3945 59.3242V56.1719ZM114.504 43.9375H117.48L121.863 56.4648L126.246 43.9375H129.223L123.059 61H120.668L114.504 43.9375ZM112.898 43.9375H115.863L116.402 56.1484V61H112.898V43.9375ZM127.863 43.9375H130.84V61H127.324V56.1484L127.863 43.9375ZM139.547 61.2344C138.562 61.2344 137.68 61.0781 136.898 60.7656C136.117 60.4453 135.453 60.0039 134.906 59.4414C134.367 58.8789 133.953 58.2266 133.664 57.4844C133.375 56.7344 133.23 55.9375 133.23 55.0938V54.625C133.23 53.6641 133.367 52.7852 133.641 51.9883C133.914 51.1914 134.305 50.5 134.812 49.9141C135.328 49.3281 135.953 48.8789 136.688 48.5664C137.422 48.2461 138.25 48.0859 139.172 48.0859C140.07 48.0859 140.867 48.2344 141.562 48.5312C142.258 48.8281 142.84 49.25 143.309 49.7969C143.785 50.3438 144.145 51 144.387 51.7656C144.629 52.5234 144.75 53.3672 144.75 54.2969V55.7031H134.672V53.4531H141.434V53.1953C141.434 52.7266 141.348 52.3086 141.176 51.9414C141.012 51.5664 140.762 51.2695 140.426 51.0508C140.09 50.832 139.66 50.7227 139.137 50.7227C138.691 50.7227 138.309 50.8203 137.988 51.0156C137.668 51.2109 137.406 51.4844 137.203 51.8359C137.008 52.1875 136.859 52.6016 136.758 53.0781C136.664 53.5469 136.617 54.0625 136.617 54.625V55.0938C136.617 55.6016 136.688 56.0703 136.828 56.5C136.977 56.9297 137.184 57.3008 137.449 57.6133C137.723 57.9258 138.051 58.168 138.434 58.3398C138.824 58.5117 139.266 58.5977 139.758 58.5977C140.367 58.5977 140.934 58.4805 141.457 58.2461C141.988 58.0039 142.445 57.6406 142.828 57.1562L144.469 58.9375C144.203 59.3203 143.84 59.6875 143.379 60.0391C142.926 60.3906 142.379 60.6797 141.738 60.9062C141.098 61.125 140.367 61.2344 139.547 61.2344ZM150.047 50.9453V61H146.66V48.3203H149.836L150.047 50.9453ZM149.578 54.2148H148.641C148.641 53.332 148.746 52.5195 148.957 51.7773C149.176 51.0273 149.492 50.3789 149.906 49.832C150.328 49.2773 150.848 48.8477 151.465 48.543C152.082 48.2383 152.797 48.0859 153.609 48.0859C154.172 48.0859 154.688 48.1719 155.156 48.3438C155.625 48.5078 156.027 48.7695 156.363 49.1289C156.707 49.4805 156.973 49.9414 157.16 50.5117C157.348 51.0742 157.441 51.75 157.441 52.5391V61H154.066V52.9141C154.066 52.3359 153.988 51.8906 153.832 51.5781C153.676 51.2656 153.453 51.0469 153.164 50.9219C152.883 50.7969 152.543 50.7344 152.145 50.7344C151.707 50.7344 151.324 50.8242 150.996 51.0039C150.676 51.1836 150.41 51.4336 150.199 51.7539C149.988 52.0664 149.832 52.4336 149.73 52.8555C149.629 53.2773 149.578 53.7305 149.578 54.2148ZM157.125 53.8281L155.918 53.9805C155.918 53.1523 156.02 52.3828 156.223 51.6719C156.434 50.9609 156.742 50.3359 157.148 49.7969C157.562 49.2578 158.074 48.8398 158.684 48.543C159.293 48.2383 159.996 48.0859 160.793 48.0859C161.402 48.0859 161.957 48.1758 162.457 48.3555C162.957 48.5273 163.383 48.8047 163.734 49.1875C164.094 49.5625 164.367 50.0547 164.555 50.6641C164.75 51.2734 164.848 52.0195 164.848 52.9023V61H161.461V52.9023C161.461 52.3164 161.383 51.8711 161.227 51.5664C161.078 51.2539 160.859 51.0391 160.57 50.9219C160.289 50.7969 159.953 50.7344 159.562 50.7344C159.156 50.7344 158.801 50.8164 158.496 50.9805C158.191 51.1367 157.938 51.3555 157.734 51.6367C157.531 51.918 157.379 52.2461 157.277 52.6211C157.176 52.9883 157.125 53.3906 157.125 53.8281ZM166.922 54.7891V54.543C166.922 53.6133 167.055 52.7578 167.32 51.9766C167.586 51.1875 167.973 50.5039 168.48 49.9258C168.988 49.3477 169.613 48.8984 170.355 48.5781C171.098 48.25 171.949 48.0859 172.91 48.0859C173.871 48.0859 174.727 48.25 175.477 48.5781C176.227 48.8984 176.855 49.3477 177.363 49.9258C177.879 50.5039 178.27 51.1875 178.535 51.9766C178.801 52.7578 178.934 53.6133 178.934 54.543V54.7891C178.934 55.7109 178.801 56.5664 178.535 57.3555C178.27 58.1367 177.879 58.8203 177.363 59.4062C176.855 59.9844 176.23 60.4336 175.488 60.7539C174.746 61.0742 173.895 61.2344 172.934 61.2344C171.973 61.2344 171.117 61.0742 170.367 60.7539C169.625 60.4336 168.996 59.9844 168.48 59.4062C167.973 58.8203 167.586 58.1367 167.32 57.3555C167.055 56.5664 166.922 55.7109 166.922 54.7891ZM170.297 54.543V54.7891C170.297 55.3203 170.344 55.8164 170.438 56.2773C170.531 56.7383 170.68 57.1445 170.883 57.4961C171.094 57.8398 171.367 58.1094 171.703 58.3047C172.039 58.5 172.449 58.5977 172.934 58.5977C173.402 58.5977 173.805 58.5 174.141 58.3047C174.477 58.1094 174.746 57.8398 174.949 57.4961C175.152 57.1445 175.301 56.7383 175.395 56.2773C175.496 55.8164 175.547 55.3203 175.547 54.7891V54.543C175.547 54.0273 175.496 53.543 175.395 53.0898C175.301 52.6289 175.148 52.2227 174.938 51.8711C174.734 51.5117 174.465 51.2305 174.129 51.0273C173.793 50.8242 173.387 50.7227 172.91 50.7227C172.434 50.7227 172.027 50.8242 171.691 51.0273C171.363 51.2305 171.094 51.5117 170.883 51.8711C170.68 52.2227 170.531 52.6289 170.438 53.0898C170.344 53.543 170.297 54.0273 170.297 54.543ZM188.801 43.9375H191.777L196.16 56.4648L200.543 43.9375H203.52L197.355 61H194.965L188.801 43.9375ZM187.195 43.9375H190.16L190.699 56.1484V61H187.195V43.9375ZM202.16 43.9375H205.137V61H201.621V56.1484L202.16 43.9375ZM214.852 58.1406V52.4922C214.852 52.0859 214.785 51.7383 214.652 51.4492C214.52 51.1523 214.312 50.9219 214.031 50.7578C213.758 50.5938 213.402 50.5117 212.965 50.5117C212.59 50.5117 212.266 50.5781 211.992 50.7109C211.719 50.8359 211.508 51.0195 211.359 51.2617C211.211 51.4961 211.137 51.7734 211.137 52.0938H207.762C207.762 51.5547 207.887 51.043 208.137 50.5586C208.387 50.0742 208.75 49.6484 209.227 49.2812C209.703 48.9062 210.27 48.6133 210.926 48.4023C211.59 48.1914 212.332 48.0859 213.152 48.0859C214.137 48.0859 215.012 48.25 215.777 48.5781C216.543 48.9062 217.145 49.3984 217.582 50.0547C218.027 50.7109 218.25 51.5312 218.25 52.5156V57.9414C218.25 58.6367 218.293 59.207 218.379 59.6523C218.465 60.0898 218.59 60.4727 218.754 60.8008V61H215.344C215.18 60.6562 215.055 60.2266 214.969 59.7109C214.891 59.1875 214.852 58.6641 214.852 58.1406ZM215.297 53.2773L215.32 55.1875H213.434C212.988 55.1875 212.602 55.2383 212.273 55.3398C211.945 55.4414 211.676 55.5859 211.465 55.7734C211.254 55.9531 211.098 56.1641 210.996 56.4062C210.902 56.6484 210.855 56.9141 210.855 57.2031C210.855 57.4922 210.922 57.7539 211.055 57.9883C211.188 58.2148 211.379 58.3945 211.629 58.5273C211.879 58.6523 212.172 58.7148 212.508 58.7148C213.016 58.7148 213.457 58.6133 213.832 58.4102C214.207 58.207 214.496 57.957 214.699 57.6602C214.91 57.3633 215.02 57.082 215.027 56.8164L215.918 58.2461C215.793 58.5664 215.621 58.8984 215.402 59.2422C215.191 59.5859 214.922 59.9102 214.594 60.2148C214.266 60.5117 213.871 60.7578 213.41 60.9531C212.949 61.1406 212.402 61.2344 211.77 61.2344C210.965 61.2344 210.234 61.0742 209.578 60.7539C208.93 60.4258 208.414 59.9766 208.031 59.4062C207.656 58.8281 207.469 58.1719 207.469 57.4375C207.469 56.7734 207.594 56.1836 207.844 55.668C208.094 55.1523 208.461 54.7188 208.945 54.3672C209.438 54.0078 210.051 53.7383 210.785 53.5586C211.52 53.3711 212.371 53.2773 213.34 53.2773H215.297ZM227.062 48.3203V50.7109H219.68V48.3203H227.062ZM221.508 45.1914H224.883V57.1797C224.883 57.5469 224.93 57.8281 225.023 58.0234C225.125 58.2188 225.273 58.3555 225.469 58.4336C225.664 58.5039 225.91 58.5391 226.207 58.5391C226.418 58.5391 226.605 58.5312 226.77 58.5156C226.941 58.4922 227.086 58.4688 227.203 58.4453L227.215 60.9297C226.926 61.0234 226.613 61.0977 226.277 61.1523C225.941 61.207 225.57 61.2344 225.164 61.2344C224.422 61.2344 223.773 61.1133 223.219 60.8711C222.672 60.6211 222.25 60.2227 221.953 59.6758C221.656 59.1289 221.508 58.4102 221.508 57.5195V45.1914ZM234.82 61.2344C233.836 61.2344 232.953 61.0781 232.172 60.7656C231.391 60.4453 230.727 60.0039 230.18 59.4414C229.641 58.8789 229.227 58.2266 228.938 57.4844C228.648 56.7344 228.504 55.9375 228.504 55.0938V54.625C228.504 53.6641 228.641 52.7852 228.914 51.9883C229.188 51.1914 229.578 50.5 230.086 49.9141C230.602 49.3281 231.227 48.8789 231.961 48.5664C232.695 48.2461 233.523 48.0859 234.445 48.0859C235.344 48.0859 236.141 48.2344 236.836 48.5312C237.531 48.8281 238.113 49.25 238.582 49.7969C239.059 50.3438 239.418 51 239.66 51.7656C239.902 52.5234 240.023 53.3672 240.023 54.2969V55.7031H229.945V53.4531H236.707V53.1953C236.707 52.7266 236.621 52.3086 236.449 51.9414C236.285 51.5664 236.035 51.2695 235.699 51.0508C235.363 50.832 234.934 50.7227 234.41 50.7227C233.965 50.7227 233.582 50.8203 233.262 51.0156C232.941 51.2109 232.68 51.4844 232.477 51.8359C232.281 52.1875 232.133 52.6016 232.031 53.0781C231.938 53.5469 231.891 54.0625 231.891 54.625V55.0938C231.891 55.6016 231.961 56.0703 232.102 56.5C232.25 56.9297 232.457 57.3008 232.723 57.6133C232.996 57.9258 233.324 58.168 233.707 58.3398C234.098 58.5117 234.539 58.5977 235.031 58.5977C235.641 58.5977 236.207 58.4805 236.73 58.2461C237.262 58.0039 237.719 57.6406 238.102 57.1562L239.742 58.9375C239.477 59.3203 239.113 59.6875 238.652 60.0391C238.199 60.3906 237.652 60.6797 237.012 60.9062C236.371 61.125 235.641 61.2344 234.82 61.2344Z" fill="#888888"/>
<path d="M118.594 98.4219V104.75H101.086V98.4219H118.594ZM103.828 84.875V119H95.6016V84.875H103.828ZM124.125 84.875V119H115.922V84.875H124.125ZM127.992 106.578V106.086C127.992 104.227 128.258 102.516 128.789 100.953C129.32 99.375 130.102 98.0078 131.133 96.8516C132.164 95.6953 133.438 94.7969 134.953 94.1562C136.469 93.5 138.219 93.1719 140.203 93.1719C142.203 93.1719 143.961 93.5 145.477 94.1562C147.008 94.7969 148.289 95.6953 149.32 96.8516C150.352 98.0078 151.133 99.375 151.664 100.953C152.195 102.516 152.461 104.227 152.461 106.086V106.578C152.461 108.422 152.195 110.133 151.664 111.711C151.133 113.273 150.352 114.641 149.32 115.812C148.289 116.969 147.016 117.867 145.5 118.508C143.984 119.148 142.234 119.469 140.25 119.469C138.266 119.469 136.508 119.148 134.977 118.508C133.445 117.867 132.164 116.969 131.133 115.812C130.102 114.641 129.32 113.273 128.789 111.711C128.258 110.133 127.992 108.422 127.992 106.578ZM135.891 106.086V106.578C135.891 107.531 135.961 108.422 136.102 109.25C136.242 110.078 136.477 110.805 136.805 111.43C137.133 112.039 137.578 112.516 138.141 112.859C138.703 113.203 139.406 113.375 140.25 113.375C141.078 113.375 141.766 113.203 142.312 112.859C142.875 112.516 143.32 112.039 143.648 111.43C143.977 110.805 144.211 110.078 144.352 109.25C144.492 108.422 144.562 107.531 144.562 106.578V106.086C144.562 105.164 144.492 104.297 144.352 103.484C144.211 102.656 143.977 101.93 143.648 101.305C143.32 100.664 142.875 100.164 142.312 99.8047C141.75 99.4453 141.047 99.2656 140.203 99.2656C139.375 99.2656 138.68 99.4453 138.117 99.8047C137.57 100.164 137.133 100.664 136.805 101.305C136.477 101.93 136.242 102.656 136.102 103.484C135.961 104.297 135.891 105.164 135.891 106.086ZM163.688 111.453L168.375 93.6406H173.32L171.562 102.57L166.922 119H162.961L163.688 111.453ZM161.836 93.6406L164.742 111.312L165.07 119H160.266L154.266 93.6406H161.836ZM177.492 110.938L180.422 93.6406H187.992L182.039 119H177.234L177.492 110.938ZM173.883 93.6406L178.617 111.406L179.344 119H175.336L170.789 102.617L169.102 93.6406H173.883ZM218.297 84.875V119H210.07V84.875H218.297ZM228.562 84.875V91.2266H200.039V84.875H228.562ZM225.773 106.578V106.086C225.773 104.227 226.039 102.516 226.57 100.953C227.102 99.375 227.883 98.0078 228.914 96.8516C229.945 95.6953 231.219 94.7969 232.734 94.1562C234.25 93.5 236 93.1719 237.984 93.1719C239.984 93.1719 241.742 93.5 243.258 94.1562C244.789 94.7969 246.07 95.6953 247.102 96.8516C248.133 98.0078 248.914 99.375 249.445 100.953C249.977 102.516 250.242 104.227 250.242 106.086V106.578C250.242 108.422 249.977 110.133 249.445 111.711C248.914 113.273 248.133 114.641 247.102 115.812C246.07 116.969 244.797 117.867 243.281 118.508C241.766 119.148 240.016 119.469 238.031 119.469C236.047 119.469 234.289 119.148 232.758 118.508C231.227 117.867 229.945 116.969 228.914 115.812C227.883 114.641 227.102 113.273 226.57 111.711C226.039 110.133 225.773 108.422 225.773 106.578ZM233.672 106.086V106.578C233.672 107.531 233.742 108.422 233.883 109.25C234.023 110.078 234.258 110.805 234.586 111.43C234.914 112.039 235.359 112.516 235.922 112.859C236.484 113.203 237.188 113.375 238.031 113.375C238.859 113.375 239.547 113.203 240.094 112.859C240.656 112.516 241.102 112.039 241.43 111.43C241.758 110.805 241.992 110.078 242.133 109.25C242.273 108.422 242.344 107.531 242.344 106.578V106.086C242.344 105.164 242.273 104.297 242.133 103.484C241.992 102.656 241.758 101.93 241.43 101.305C241.102 100.664 240.656 100.164 240.094 99.8047C239.531 99.4453 238.828 99.2656 237.984 99.2656C237.156 99.2656 236.461 99.4453 235.898 99.8047C235.352 100.164 234.914 100.664 234.586 101.305C234.258 101.93 234.023 102.656 233.883 103.484C233.742 104.297 233.672 105.164 233.672 106.086ZM266.086 84.875H279.516C282.141 84.875 284.422 85.2656 286.359 86.0469C288.297 86.8281 289.789 87.9844 290.836 89.5156C291.898 91.0469 292.43 92.9375 292.43 95.1875C292.43 97.1406 292.125 98.7734 291.516 100.086C290.906 101.398 290.055 102.484 288.961 103.344C287.883 104.188 286.625 104.883 285.188 105.43L282.492 106.953H271.219L271.172 100.602H279.516C280.562 100.602 281.43 100.414 282.117 100.039C282.805 99.6641 283.32 99.1328 283.664 98.4453C284.023 97.7422 284.203 96.9062 284.203 95.9375C284.203 94.9531 284.023 94.1094 283.664 93.4062C283.305 92.7031 282.773 92.1641 282.07 91.7891C281.383 91.4141 280.531 91.2266 279.516 91.2266H274.312V119H266.086V84.875ZM284.766 119L277.219 103.906L285.938 103.859L293.578 118.648V119H284.766ZM311.836 112.836V93.6406H319.758V119H312.352L311.836 112.836ZM312.586 107.68L314.648 107.633C314.648 109.336 314.445 110.914 314.039 112.367C313.633 113.805 313.031 115.055 312.234 116.117C311.453 117.18 310.484 118.008 309.328 118.602C308.188 119.18 306.867 119.469 305.367 119.469C304.117 119.469 302.969 119.297 301.922 118.953C300.891 118.594 300 118.039 299.25 117.289C298.5 116.523 297.914 115.547 297.492 114.359C297.086 113.156 296.883 111.719 296.883 110.047V93.6406H304.781V110.094C304.781 110.656 304.852 111.141 304.992 111.547C305.133 111.953 305.336 112.297 305.602 112.578C305.867 112.844 306.195 113.047 306.586 113.188C306.992 113.312 307.453 113.375 307.969 113.375C309.156 113.375 310.086 113.125 310.758 112.625C311.43 112.125 311.898 111.445 312.164 110.586C312.445 109.727 312.586 108.758 312.586 107.68ZM331.875 99.0547V119H323.977V93.6406H331.383L331.875 99.0547ZM330.938 105.453L329.086 105.5C329.086 103.562 329.32 101.836 329.789 100.32C330.258 98.7891 330.922 97.4922 331.781 96.4297C332.641 95.3672 333.664 94.5625 334.852 94.0156C336.055 93.4531 337.391 93.1719 338.859 93.1719C340.031 93.1719 341.102 93.3438 342.07 93.6875C343.055 94.0312 343.898 94.5859 344.602 95.3516C345.32 96.1172 345.867 97.1328 346.242 98.3984C346.633 99.6484 346.828 101.195 346.828 103.039V119H338.883V103.016C338.883 102 338.742 101.227 338.461 100.695C338.18 100.148 337.773 99.7734 337.242 99.5703C336.711 99.3672 336.062 99.2656 335.297 99.2656C334.484 99.2656 333.797 99.4219 333.234 99.7344C332.672 100.047 332.219 100.484 331.875 101.047C331.547 101.594 331.305 102.242 331.148 102.992C331.008 103.742 330.938 104.562 330.938 105.453ZM363.773 108.195H357.047C357.047 106.82 357.141 105.609 357.328 104.562C357.531 103.5 357.875 102.547 358.359 101.703C358.844 100.859 359.5 100.078 360.328 99.3594C361.062 98.75 361.695 98.1641 362.227 97.6016C362.758 97.0391 363.164 96.4688 363.445 95.8906C363.727 95.3125 363.867 94.6953 363.867 94.0391C363.867 93.2266 363.75 92.5625 363.516 92.0469C363.297 91.5312 362.961 91.1484 362.508 90.8984C362.07 90.6328 361.516 90.5 360.844 90.5C360.297 90.5 359.781 90.6328 359.297 90.8984C358.828 91.1641 358.445 91.5781 358.148 92.1406C357.852 92.6875 357.688 93.4141 357.656 94.3203H349.711C349.758 91.9922 350.273 90.1016 351.258 88.6484C352.258 87.1797 353.586 86.1094 355.242 85.4375C356.914 84.75 358.781 84.4062 360.844 84.4062C363.125 84.4062 365.086 84.7578 366.727 85.4609C368.367 86.1641 369.625 87.2109 370.5 88.6016C371.375 89.9766 371.812 91.6719 371.812 93.6875C371.812 95.0312 371.555 96.2031 371.039 97.2031C370.539 98.1875 369.859 99.1094 369 99.9688C368.156 100.812 367.211 101.719 366.164 102.688C365.258 103.484 364.641 104.297 364.312 105.125C363.984 105.938 363.805 106.961 363.773 108.195ZM356.086 115.32C356.086 114.195 356.492 113.258 357.305 112.508C358.117 111.742 359.172 111.359 360.469 111.359C361.766 111.359 362.82 111.742 363.633 112.508C364.445 113.258 364.852 114.195 364.852 115.32C364.852 116.445 364.445 117.391 363.633 118.156C362.82 118.906 361.766 119.281 360.469 119.281C359.172 119.281 358.117 118.906 357.305 118.156C356.492 117.391 356.086 116.445 356.086 115.32Z" fill="black"/>
<path d="M1134 0H1348C1356.28 0 1363 6.71573 1363 15V148C1363 156.284 1356.28 163 1348 163H1134V0Z" fill="#FF7EB9"/>
<path d="M1260.62 78.8847C1263.81 78.8847 1266.93 79.805 1269.59 81.5293C1272.25 83.2536 1274.32 85.7044 1275.54 88.5718C1276.76 91.4391 1277.08 94.5943 1276.46 97.6383C1275.84 100.682 1274.3 103.478 1272.04 105.673C1269.78 107.868 1266.9 109.362 1263.77 109.968C1260.63 110.573 1257.39 110.262 1254.43 109.075C1251.48 107.887 1248.96 105.876 1247.18 103.295C1245.41 100.714 1244.46 97.6806 1244.46 94.5769C1244.46 90.4151 1246.16 86.4237 1249.19 83.4808C1252.22 80.538 1256.33 78.8847 1260.62 78.8847ZM1260.62 73.6539C1256.36 73.6539 1252.19 74.881 1248.65 77.1801C1245.11 79.4791 1242.35 82.7469 1240.72 86.57C1239.09 90.3932 1238.66 94.6001 1239.49 98.6588C1240.32 102.717 1242.37 106.446 1245.39 109.372C1248.4 112.298 1252.24 114.291 1256.41 115.098C1260.59 115.905 1264.92 115.491 1268.86 113.907C1272.79 112.324 1276.16 109.642 1278.52 106.201C1280.89 102.76 1282.15 98.7151 1282.15 94.5769C1282.15 89.0278 1279.88 83.706 1275.85 79.7821C1271.81 75.8583 1266.33 73.6539 1260.62 73.6539Z" fill="white"/>
<path d="M1274.08 47.5H1220.23C1218.8 47.5 1217.43 48.0511 1216.42 49.0321C1215.41 50.013 1214.85 51.3435 1214.85 52.7307V105.038C1214.85 106.426 1215.41 107.756 1216.42 108.737C1217.43 109.718 1218.8 110.269 1220.23 110.269H1231V105.038H1220.23V68.423H1279.46V52.7307C1279.46 51.3435 1278.89 50.013 1277.88 49.0321C1276.87 48.0511 1275.5 47.5 1274.08 47.5ZM1220.23 63.1922V52.7307H1274.08V63.1922H1220.23Z" fill="white"/>
<path d="M1255.23 86.731V102.423L1268.69 94.5771L1255.23 86.731Z" fill="white"/>
</svg>
