<svg width="1363" height="163" viewBox="0 0 1363 163" fill="none" xmlns="http://www.w3.org/2000/svg">
<path d="M0 15C0 6.71573 6.71573 0 15 0H37V163H15C6.71573 163 0 156.284 0 148V15Z" fill="#424242"/>
<rect width="1097" height="163" transform="translate(37)" fill="#F0F0F0"/>
<path d="M101.906 53.9219L94.3945 51.2383V48.0859L104.602 52.375V54.6367L101.906 53.9219ZM94.3945 56.1719L101.918 53.4297L104.602 52.7852V55.0352L94.3945 59.3242V56.1719ZM114.504 43.9375H117.48L121.863 56.4648L126.246 43.9375H129.223L123.059 61H120.668L114.504 43.9375ZM112.898 43.9375H115.863L116.402 56.1484V61H112.898V43.9375ZM127.863 43.9375H130.84V61H127.324V56.1484L127.863 43.9375ZM139.547 61.2344C138.562 61.2344 137.68 61.0781 136.898 60.7656C136.117 60.4453 135.453 60.0039 134.906 59.4414C134.367 58.8789 133.953 58.2266 133.664 57.4844C133.375 56.7344 133.23 55.9375 133.23 55.0938V54.625C133.23 53.6641 133.367 52.7852 133.641 51.9883C133.914 51.1914 134.305 50.5 134.812 49.9141C135.328 49.3281 135.953 48.8789 136.688 48.5664C137.422 48.2461 138.25 48.0859 139.172 48.0859C140.07 48.0859 140.867 48.2344 141.562 48.5312C142.258 48.8281 142.84 49.25 143.309 49.7969C143.785 50.3438 144.145 51 144.387 51.7656C144.629 52.5234 144.75 53.3672 144.75 54.2969V55.7031H134.672V53.4531H141.434V53.1953C141.434 52.7266 141.348 52.3086 141.176 51.9414C141.012 51.5664 140.762 51.2695 140.426 51.0508C140.09 50.832 139.66 50.7227 139.137 50.7227C138.691 50.7227 138.309 50.8203 137.988 51.0156C137.668 51.2109 137.406 51.4844 137.203 51.8359C137.008 52.1875 136.859 52.6016 136.758 53.0781C136.664 53.5469 136.617 54.0625 136.617 54.625V55.0938C136.617 55.6016 136.688 56.0703 136.828 56.5C136.977 56.9297 137.184 57.3008 137.449 57.6133C137.723 57.9258 138.051 58.168 138.434 58.3398C138.824 58.5117 139.266 58.5977 139.758 58.5977C140.367 58.5977 140.934 58.4805 141.457 58.2461C141.988 58.0039 142.445 57.6406 142.828 57.1562L144.469 58.9375C144.203 59.3203 143.84 59.6875 143.379 60.0391C142.926 60.3906 142.379 60.6797 141.738 60.9062C141.098 61.125 140.367 61.2344 139.547 61.2344ZM150.047 50.9453V61H146.66V48.3203H149.836L150.047 50.9453ZM149.578 54.2148H148.641C148.641 53.332 148.746 52.5195 148.957 51.7773C149.176 51.0273 149.492 50.3789 149.906 49.832C150.328 49.2773 150.848 48.8477 151.465 48.543C152.082 48.2383 152.797 48.0859 153.609 48.0859C154.172 48.0859 154.688 48.1719 155.156 48.3438C155.625 48.5078 156.027 48.7695 156.363 49.1289C156.707 49.4805 156.973 49.9414 157.16 50.5117C157.348 51.0742 157.441 51.75 157.441 52.5391V61H154.066V52.9141C154.066 52.3359 153.988 51.8906 153.832 51.5781C153.676 51.2656 153.453 51.0469 153.164 50.9219C152.883 50.7969 152.543 50.7344 152.145 50.7344C151.707 50.7344 151.324 50.8242 150.996 51.0039C150.676 51.1836 150.41 51.4336 150.199 51.7539C149.988 52.0664 149.832 52.4336 149.73 52.8555C149.629 53.2773 149.578 53.7305 149.578 54.2148ZM157.125 53.8281L155.918 53.9805C155.918 53.1523 156.02 52.3828 156.223 51.6719C156.434 50.9609 156.742 50.3359 157.148 49.7969C157.562 49.2578 158.074 48.8398 158.684 48.543C159.293 48.2383 159.996 48.0859 160.793 48.0859C161.402 48.0859 161.957 48.1758 162.457 48.3555C162.957 48.5273 163.383 48.8047 163.734 49.1875C164.094 49.5625 164.367 50.0547 164.555 50.6641C164.75 51.2734 164.848 52.0195 164.848 52.9023V61H161.461V52.9023C161.461 52.3164 161.383 51.8711 161.227 51.5664C161.078 51.2539 160.859 51.0391 160.57 50.9219C160.289 50.7969 159.953 50.7344 159.562 50.7344C159.156 50.7344 158.801 50.8164 158.496 50.9805C158.191 51.1367 157.938 51.3555 157.734 51.6367C157.531 51.918 157.379 52.2461 157.277 52.6211C157.176 52.9883 157.125 53.3906 157.125 53.8281ZM166.922 54.7891V54.543C166.922 53.6133 167.055 52.7578 167.32 51.9766C167.586 51.1875 167.973 50.5039 168.48 49.9258C168.988 49.3477 169.613 48.8984 170.355 48.5781C171.098 48.25 171.949 48.0859 172.91 48.0859C173.871 48.0859 174.727 48.25 175.477 48.5781C176.227 48.8984 176.855 49.3477 177.363 49.9258C177.879 50.5039 178.27 51.1875 178.535 51.9766C178.801 52.7578 178.934 53.6133 178.934 54.543V54.7891C178.934 55.7109 178.801 56.5664 178.535 57.3555C178.27 58.1367 177.879 58.8203 177.363 59.4062C176.855 59.9844 176.23 60.4336 175.488 60.7539C174.746 61.0742 173.895 61.2344 172.934 61.2344C171.973 61.2344 171.117 61.0742 170.367 60.7539C169.625 60.4336 168.996 59.9844 168.48 59.4062C167.973 58.8203 167.586 58.1367 167.32 57.3555C167.055 56.5664 166.922 55.7109 166.922 54.7891ZM170.297 54.543V54.7891C170.297 55.3203 170.344 55.8164 170.438 56.2773C170.531 56.7383 170.68 57.1445 170.883 57.4961C171.094 57.8398 171.367 58.1094 171.703 58.3047C172.039 58.5 172.449 58.5977 172.934 58.5977C173.402 58.5977 173.805 58.5 174.141 58.3047C174.477 58.1094 174.746 57.8398 174.949 57.4961C175.152 57.1445 175.301 56.7383 175.395 56.2773C175.496 55.8164 175.547 55.3203 175.547 54.7891V54.543C175.547 54.0273 175.496 53.543 175.395 53.0898C175.301 52.6289 175.148 52.2227 174.938 51.8711C174.734 51.5117 174.465 51.2305 174.129 51.0273C173.793 50.8242 173.387 50.7227 172.91 50.7227C172.434 50.7227 172.027 50.8242 171.691 51.0273C171.363 51.2305 171.094 51.5117 170.883 51.8711C170.68 52.2227 170.531 52.6289 170.438 53.0898C170.344 53.543 170.297 54.0273 170.297 54.543ZM188.801 43.9375H191.777L196.16 56.4648L200.543 43.9375H203.52L197.355 61H194.965L188.801 43.9375ZM187.195 43.9375H190.16L190.699 56.1484V61H187.195V43.9375ZM202.16 43.9375H205.137V61H201.621V56.1484L202.16 43.9375ZM214.852 58.1406V52.4922C214.852 52.0859 214.785 51.7383 214.652 51.4492C214.52 51.1523 214.312 50.9219 214.031 50.7578C213.758 50.5938 213.402 50.5117 212.965 50.5117C212.59 50.5117 212.266 50.5781 211.992 50.7109C211.719 50.8359 211.508 51.0195 211.359 51.2617C211.211 51.4961 211.137 51.7734 211.137 52.0938H207.762C207.762 51.5547 207.887 51.043 208.137 50.5586C208.387 50.0742 208.75 49.6484 209.227 49.2812C209.703 48.9062 210.27 48.6133 210.926 48.4023C211.59 48.1914 212.332 48.0859 213.152 48.0859C214.137 48.0859 215.012 48.25 215.777 48.5781C216.543 48.9062 217.145 49.3984 217.582 50.0547C218.027 50.7109 218.25 51.5312 218.25 52.5156V57.9414C218.25 58.6367 218.293 59.207 218.379 59.6523C218.465 60.0898 218.59 60.4727 218.754 60.8008V61H215.344C215.18 60.6562 215.055 60.2266 214.969 59.7109C214.891 59.1875 214.852 58.6641 214.852 58.1406ZM215.297 53.2773L215.32 55.1875H213.434C212.988 55.1875 212.602 55.2383 212.273 55.3398C211.945 55.4414 211.676 55.5859 211.465 55.7734C211.254 55.9531 211.098 56.1641 210.996 56.4062C210.902 56.6484 210.855 56.9141 210.855 57.2031C210.855 57.4922 210.922 57.7539 211.055 57.9883C211.188 58.2148 211.379 58.3945 211.629 58.5273C211.879 58.6523 212.172 58.7148 212.508 58.7148C213.016 58.7148 213.457 58.6133 213.832 58.4102C214.207 58.207 214.496 57.957 214.699 57.6602C214.91 57.3633 215.02 57.082 215.027 56.8164L215.918 58.2461C215.793 58.5664 215.621 58.8984 215.402 59.2422C215.191 59.5859 214.922 59.9102 214.594 60.2148C214.266 60.5117 213.871 60.7578 213.41 60.9531C212.949 61.1406 212.402 61.2344 211.77 61.2344C210.965 61.2344 210.234 61.0742 209.578 60.7539C208.93 60.4258 208.414 59.9766 208.031 59.4062C207.656 58.8281 207.469 58.1719 207.469 57.4375C207.469 56.7734 207.594 56.1836 207.844 55.668C208.094 55.1523 208.461 54.7188 208.945 54.3672C209.438 54.0078 210.051 53.7383 210.785 53.5586C211.52 53.3711 212.371 53.2773 213.34 53.2773H215.297ZM227.062 48.3203V50.7109H219.68V48.3203H227.062ZM221.508 45.1914H224.883V57.1797C224.883 57.5469 224.93 57.8281 225.023 58.0234C225.125 58.2188 225.273 58.3555 225.469 58.4336C225.664 58.5039 225.91 58.5391 226.207 58.5391C226.418 58.5391 226.605 58.5312 226.77 58.5156C226.941 58.4922 227.086 58.4688 227.203 58.4453L227.215 60.9297C226.926 61.0234 226.613 61.0977 226.277 61.1523C225.941 61.207 225.57 61.2344 225.164 61.2344C224.422 61.2344 223.773 61.1133 223.219 60.8711C222.672 60.6211 222.25 60.2227 221.953 59.6758C221.656 59.1289 221.508 58.4102 221.508 57.5195V45.1914ZM234.82 61.2344C233.836 61.2344 232.953 61.0781 232.172 60.7656C231.391 60.4453 230.727 60.0039 230.18 59.4414C229.641 58.8789 229.227 58.2266 228.938 57.4844C228.648 56.7344 228.504 55.9375 228.504 55.0938V54.625C228.504 53.6641 228.641 52.7852 228.914 51.9883C229.188 51.1914 229.578 50.5 230.086 49.9141C230.602 49.3281 231.227 48.8789 231.961 48.5664C232.695 48.2461 233.523 48.0859 234.445 48.0859C235.344 48.0859 236.141 48.2344 236.836 48.5312C237.531 48.8281 238.113 49.25 238.582 49.7969C239.059 50.3438 239.418 51 239.66 51.7656C239.902 52.5234 240.023 53.3672 240.023 54.2969V55.7031H229.945V53.4531H236.707V53.1953C236.707 52.7266 236.621 52.3086 236.449 51.9414C236.285 51.5664 236.035 51.2695 235.699 51.0508C235.363 50.832 234.934 50.7227 234.41 50.7227C233.965 50.7227 233.582 50.8203 233.262 51.0156C232.941 51.2109 232.68 51.4844 232.477 51.8359C232.281 52.1875 232.133 52.6016 232.031 53.0781C231.938 53.5469 231.891 54.0625 231.891 54.625V55.0938C231.891 55.6016 231.961 56.0703 232.102 56.5C232.25 56.9297 232.457 57.3008 232.723 57.6133C232.996 57.9258 233.324 58.168 233.707 58.3398C234.098 58.5117 234.539 58.5977 235.031 58.5977C235.641 58.5977 236.207 58.4805 236.73 58.2461C237.262 58.0039 237.719 57.6406 238.102 57.1562L239.742 58.9375C239.477 59.3203 239.113 59.6875 238.652 60.0391C238.199 60.3906 237.652 60.6797 237.012 60.9062C236.371 61.125 235.641 61.2344 234.82 61.2344Z" fill="#888888"/>
<path d="M110.062 92.0469L101.742 119H92.9062L105.445 84.875H111.047L110.062 92.0469ZM116.953 119L108.609 92.0469L107.531 84.875H113.203L125.812 119H116.953ZM116.625 106.273V112.625H99.1172V106.273H116.625ZM135.258 115.906L142.055 84.875H146.109L148.312 87.5234L141.07 119H136.594L135.258 115.906ZM133.453 84.875L139.195 116.141L137.719 119H132.539L125.297 84.875H133.453ZM152.039 115.977L157.734 84.875H165.867L158.625 119H153.469L152.039 115.977ZM149.039 84.875L156 116.094L154.594 119H150.117L142.711 87.4766L145.008 84.875H149.039ZM186.68 109.93C186.68 109.398 186.602 108.922 186.445 108.5C186.289 108.062 186 107.656 185.578 107.281C185.156 106.906 184.547 106.531 183.75 106.156C182.969 105.766 181.938 105.359 180.656 104.938C179.156 104.438 177.711 103.875 176.32 103.25C174.93 102.609 173.688 101.867 172.594 101.023C171.5 100.164 170.633 99.1641 169.992 98.0234C169.352 96.8672 169.031 95.5234 169.031 93.9922C169.031 92.5234 169.359 91.2031 170.016 90.0312C170.672 88.8438 171.586 87.8359 172.758 87.0078C173.945 86.1641 175.336 85.5234 176.93 85.0859C178.523 84.6328 180.266 84.4062 182.156 84.4062C184.656 84.4062 186.859 84.8438 188.766 85.7188C190.688 86.5781 192.188 87.8047 193.266 89.3984C194.359 90.9766 194.906 92.8438 194.906 95H186.727C186.727 94.1406 186.547 93.3828 186.188 92.7266C185.844 92.0703 185.32 91.5547 184.617 91.1797C183.914 90.8047 183.031 90.6172 181.969 90.6172C180.938 90.6172 180.07 90.7734 179.367 91.0859C178.664 91.3984 178.133 91.8203 177.773 92.3516C177.414 92.8672 177.234 93.4375 177.234 94.0625C177.234 94.5781 177.375 95.0469 177.656 95.4688C177.953 95.875 178.367 96.2578 178.898 96.6172C179.445 96.9766 180.102 97.3203 180.867 97.6484C181.648 97.9766 182.523 98.2969 183.492 98.6094C185.305 99.1875 186.914 99.8359 188.32 100.555C189.742 101.258 190.938 102.062 191.906 102.969C192.891 103.859 193.633 104.875 194.133 106.016C194.648 107.156 194.906 108.445 194.906 109.883C194.906 111.414 194.609 112.773 194.016 113.961C193.422 115.148 192.57 116.156 191.461 116.984C190.352 117.797 189.023 118.414 187.477 118.836C185.93 119.258 184.203 119.469 182.297 119.469C180.547 119.469 178.82 119.25 177.117 118.812C175.43 118.359 173.898 117.672 172.523 116.75C171.148 115.812 170.047 114.617 169.219 113.164C168.406 111.695 168 109.953 168 107.938H176.25C176.25 108.938 176.383 109.781 176.648 110.469C176.914 111.156 177.305 111.711 177.82 112.133C178.336 112.539 178.969 112.836 179.719 113.023C180.469 113.195 181.328 113.281 182.297 113.281C183.344 113.281 184.188 113.133 184.828 112.836C185.469 112.523 185.938 112.117 186.234 111.617C186.531 111.102 186.68 110.539 186.68 109.93ZM222.188 119H214.617L214.664 112.672H222.188C223.75 112.672 225.07 112.297 226.148 111.547C227.242 110.797 228.07 109.68 228.633 108.195C229.211 106.695 229.5 104.852 229.5 102.664V101.188C229.5 99.5469 229.336 98.1094 229.008 96.875C228.695 95.625 228.227 94.5859 227.602 93.7578C226.977 92.9141 226.195 92.2812 225.258 91.8594C224.336 91.4375 223.273 91.2266 222.07 91.2266H214.477V84.875H222.07C224.383 84.875 226.5 85.2734 228.422 86.0703C230.359 86.8516 232.031 87.9766 233.438 89.4453C234.859 90.8984 235.953 92.625 236.719 94.625C237.5 96.6094 237.891 98.8125 237.891 101.234V102.664C237.891 105.07 237.5 107.273 236.719 109.273C235.953 111.273 234.867 113 233.461 114.453C232.055 115.906 230.391 117.031 228.469 117.828C226.562 118.609 224.469 119 222.188 119ZM219.328 84.875V119H211.102V84.875H219.328ZM254.086 119.469C252.023 119.469 250.18 119.148 248.555 118.508C246.93 117.852 245.555 116.953 244.43 115.812C243.32 114.672 242.469 113.359 241.875 111.875C241.297 110.391 241.008 108.82 241.008 107.164V106.273C241.008 104.414 241.266 102.695 241.781 101.117C242.297 99.5234 243.062 98.1328 244.078 96.9453C245.094 95.7578 246.367 94.8359 247.898 94.1797C249.43 93.5078 251.211 93.1719 253.242 93.1719C255.039 93.1719 256.648 93.4609 258.07 94.0391C259.492 94.6172 260.695 95.4453 261.68 96.5234C262.68 97.6016 263.438 98.9062 263.953 100.438C264.484 101.969 264.75 103.688 264.75 105.594V108.805H244.031V103.859H257.039V103.25C257.055 102.406 256.906 101.688 256.594 101.094C256.297 100.5 255.859 100.047 255.281 99.7344C254.703 99.4219 254 99.2656 253.172 99.2656C252.312 99.2656 251.602 99.4531 251.039 99.8281C250.492 100.203 250.062 100.719 249.75 101.375C249.453 102.016 249.242 102.758 249.117 103.602C248.992 104.445 248.93 105.336 248.93 106.273V107.164C248.93 108.102 249.055 108.953 249.305 109.719C249.57 110.484 249.945 111.141 250.43 111.688C250.93 112.219 251.523 112.633 252.211 112.93C252.914 113.227 253.711 113.375 254.602 113.375C255.68 113.375 256.742 113.172 257.789 112.766C258.836 112.359 259.734 111.688 260.484 110.75L264.07 115.016C263.555 115.75 262.82 116.461 261.867 117.148C260.93 117.836 259.805 118.398 258.492 118.836C257.18 119.258 255.711 119.469 254.086 119.469ZM275.93 98.5156V128.75H268.031V93.6406H275.391L275.93 98.5156ZM291.492 106.016V106.508C291.492 108.352 291.281 110.062 290.859 111.641C290.438 113.219 289.812 114.594 288.984 115.766C288.156 116.938 287.125 117.852 285.891 118.508C284.672 119.148 283.258 119.469 281.648 119.469C280.133 119.469 278.828 119.133 277.734 118.461C276.641 117.789 275.727 116.859 274.992 115.672C274.258 114.484 273.664 113.125 273.211 111.594C272.758 110.062 272.398 108.445 272.133 106.742V106.109C272.398 104.281 272.758 102.586 273.211 101.023C273.664 99.4453 274.258 98.0703 274.992 96.8984C275.727 95.7266 276.633 94.8125 277.711 94.1562C278.805 93.5 280.109 93.1719 281.625 93.1719C283.234 93.1719 284.648 93.4766 285.867 94.0859C287.102 94.6953 288.133 95.5703 288.961 96.7109C289.805 97.8359 290.438 99.1875 290.859 100.766C291.281 102.344 291.492 104.094 291.492 106.016ZM283.594 106.508V106.016C283.594 105.031 283.523 104.133 283.383 103.32C283.242 102.492 283.016 101.773 282.703 101.164C282.406 100.555 282.008 100.086 281.508 99.7578C281.008 99.4297 280.391 99.2656 279.656 99.2656C278.812 99.2656 278.102 99.3984 277.523 99.6641C276.961 99.9141 276.508 100.305 276.164 100.836C275.836 101.352 275.602 102 275.461 102.781C275.336 103.547 275.281 104.445 275.297 105.477V107.398C275.266 108.586 275.383 109.633 275.648 110.539C275.914 111.43 276.375 112.125 277.031 112.625C277.688 113.125 278.578 113.375 279.703 113.375C280.453 113.375 281.078 113.203 281.578 112.859C282.078 112.5 282.477 112.008 282.773 111.383C283.07 110.742 283.281 110.008 283.406 109.18C283.531 108.352 283.594 107.461 283.594 106.508ZM303.352 83V119H295.43V83H303.352ZM307.242 106.578V106.086C307.242 104.227 307.508 102.516 308.039 100.953C308.57 99.375 309.352 98.0078 310.383 96.8516C311.414 95.6953 312.688 94.7969 314.203 94.1562C315.719 93.5 317.469 93.1719 319.453 93.1719C321.453 93.1719 323.211 93.5 324.727 94.1562C326.258 94.7969 327.539 95.6953 328.57 96.8516C329.602 98.0078 330.383 99.375 330.914 100.953C331.445 102.516 331.711 104.227 331.711 106.086V106.578C331.711 108.422 331.445 110.133 330.914 111.711C330.383 113.273 329.602 114.641 328.57 115.812C327.539 116.969 326.266 117.867 324.75 118.508C323.234 119.148 321.484 119.469 319.5 119.469C317.516 119.469 315.758 119.148 314.227 118.508C312.695 117.867 311.414 116.969 310.383 115.812C309.352 114.641 308.57 113.273 308.039 111.711C307.508 110.133 307.242 108.422 307.242 106.578ZM315.141 106.086V106.578C315.141 107.531 315.211 108.422 315.352 109.25C315.492 110.078 315.727 110.805 316.055 111.43C316.383 112.039 316.828 112.516 317.391 112.859C317.953 113.203 318.656 113.375 319.5 113.375C320.328 113.375 321.016 113.203 321.562 112.859C322.125 112.516 322.57 112.039 322.898 111.43C323.227 110.805 323.461 110.078 323.602 109.25C323.742 108.422 323.812 107.531 323.812 106.578V106.086C323.812 105.164 323.742 104.297 323.602 103.484C323.461 102.656 323.227 101.93 322.898 101.305C322.57 100.664 322.125 100.164 321.562 99.8047C321 99.4453 320.297 99.2656 319.453 99.2656C318.625 99.2656 317.93 99.4453 317.367 99.8047C316.82 100.164 316.383 100.664 316.055 101.305C315.727 101.93 315.492 102.656 315.352 103.484C315.211 104.297 315.141 105.164 315.141 106.086ZM342.633 116.023L349.195 93.6406H357.68L347.484 122.773C347.266 123.414 346.977 124.102 346.617 124.836C346.258 125.586 345.766 126.297 345.141 126.969C344.516 127.641 343.711 128.188 342.727 128.609C341.758 129.031 340.555 129.242 339.117 129.242C338.352 129.242 337.789 129.203 337.43 129.125C337.086 129.062 336.555 128.945 335.836 128.773V123.125C336.039 123.125 336.211 123.125 336.352 123.125C336.508 123.125 336.68 123.125 336.867 123.125C337.711 123.125 338.383 123.039 338.883 122.867C339.398 122.695 339.789 122.445 340.055 122.117C340.336 121.789 340.555 121.391 340.711 120.922L342.633 116.023ZM340.969 93.6406L345.961 111.383L346.828 119.75H341.531L332.508 93.6406H340.969ZM367.711 99.0078V119H359.812V93.6406H367.219L367.711 99.0078ZM366.75 105.453L364.945 105.5C364.945 103.719 365.156 102.078 365.578 100.578C366 99.0781 366.625 97.7734 367.453 96.6641C368.281 95.5547 369.297 94.6953 370.5 94.0859C371.719 93.4766 373.125 93.1719 374.719 93.1719C375.828 93.1719 376.836 93.3438 377.742 93.6875C378.648 94.0156 379.43 94.5391 380.086 95.2578C380.742 95.9609 381.242 96.8828 381.586 98.0234C381.945 99.1484 382.125 100.5 382.125 102.078V119H374.227V103.086C374.227 102.008 374.102 101.195 373.852 100.648C373.617 100.102 373.273 99.7344 372.82 99.5469C372.367 99.3594 371.812 99.2656 371.156 99.2656C370.469 99.2656 369.852 99.4219 369.305 99.7344C368.758 100.047 368.289 100.484 367.898 101.047C367.523 101.594 367.234 102.242 367.031 102.992C366.844 103.742 366.75 104.562 366.75 105.453ZM381.234 105.453L379.031 105.5C379.031 103.719 379.227 102.078 379.617 100.578C380.023 99.0781 380.625 97.7734 381.422 96.6641C382.234 95.5547 383.242 94.6953 384.445 94.0859C385.648 93.4766 387.047 93.1719 388.641 93.1719C389.797 93.1719 390.859 93.3438 391.828 93.6875C392.797 94.0312 393.633 94.5859 394.336 95.3516C395.039 96.1172 395.586 97.1328 395.977 98.3984C396.367 99.6484 396.562 101.195 396.562 103.039V119H388.641V103.039C388.641 101.992 388.516 101.203 388.266 100.672C388.031 100.125 387.688 99.7578 387.234 99.5703C386.781 99.3672 386.242 99.2656 385.617 99.2656C384.867 99.2656 384.219 99.4219 383.672 99.7344C383.125 100.047 382.664 100.484 382.289 101.047C381.93 101.594 381.664 102.242 381.492 102.992C381.32 103.742 381.234 104.562 381.234 105.453ZM413.367 119.469C411.305 119.469 409.461 119.148 407.836 118.508C406.211 117.852 404.836 116.953 403.711 115.812C402.602 114.672 401.75 113.359 401.156 111.875C400.578 110.391 400.289 108.82 400.289 107.164V106.273C400.289 104.414 400.547 102.695 401.062 101.117C401.578 99.5234 402.344 98.1328 403.359 96.9453C404.375 95.7578 405.648 94.8359 407.18 94.1797C408.711 93.5078 410.492 93.1719 412.523 93.1719C414.32 93.1719 415.93 93.4609 417.352 94.0391C418.773 94.6172 419.977 95.4453 420.961 96.5234C421.961 97.6016 422.719 98.9062 423.234 100.438C423.766 101.969 424.031 103.688 424.031 105.594V108.805H403.312V103.859H416.32V103.25C416.336 102.406 416.188 101.688 415.875 101.094C415.578 100.5 415.141 100.047 414.562 99.7344C413.984 99.4219 413.281 99.2656 412.453 99.2656C411.594 99.2656 410.883 99.4531 410.32 99.8281C409.773 100.203 409.344 100.719 409.031 101.375C408.734 102.016 408.523 102.758 408.398 103.602C408.273 104.445 408.211 105.336 408.211 106.273V107.164C408.211 108.102 408.336 108.953 408.586 109.719C408.852 110.484 409.227 111.141 409.711 111.688C410.211 112.219 410.805 112.633 411.492 112.93C412.195 113.227 412.992 113.375 413.883 113.375C414.961 113.375 416.023 113.172 417.07 112.766C418.117 112.359 419.016 111.688 419.766 110.75L423.352 115.016C422.836 115.75 422.102 116.461 421.148 117.148C420.211 117.836 419.086 118.398 417.773 118.836C416.461 119.258 414.992 119.469 413.367 119.469ZM435 99.0547V119H427.102V93.6406H434.508L435 99.0547ZM434.062 105.453L432.211 105.5C432.211 103.562 432.445 101.836 432.914 100.32C433.383 98.7891 434.047 97.4922 434.906 96.4297C435.766 95.3672 436.789 94.5625 437.977 94.0156C439.18 93.4531 440.516 93.1719 441.984 93.1719C443.156 93.1719 444.227 93.3438 445.195 93.6875C446.18 94.0312 447.023 94.5859 447.727 95.3516C448.445 96.1172 448.992 97.1328 449.367 98.3984C449.758 99.6484 449.953 101.195 449.953 103.039V119H442.008V103.016C442.008 102 441.867 101.227 441.586 100.695C441.305 100.148 440.898 99.7734 440.367 99.5703C439.836 99.3672 439.188 99.2656 438.422 99.2656C437.609 99.2656 436.922 99.4219 436.359 99.7344C435.797 100.047 435.344 100.484 435 101.047C434.672 101.594 434.43 102.242 434.273 102.992C434.133 103.742 434.062 104.562 434.062 105.453ZM467.695 93.6406V99.125H452.414V93.6406H467.695ZM455.625 87.3359H463.523V110.727C463.523 111.398 463.602 111.922 463.758 112.297C463.914 112.656 464.18 112.914 464.555 113.07C464.945 113.211 465.461 113.281 466.102 113.281C466.555 113.281 466.93 113.273 467.227 113.258C467.523 113.227 467.805 113.188 468.07 113.141V118.789C467.398 119.008 466.695 119.172 465.961 119.281C465.227 119.406 464.445 119.469 463.617 119.469C461.93 119.469 460.484 119.203 459.281 118.672C458.094 118.141 457.188 117.305 456.562 116.164C455.938 115.023 455.625 113.539 455.625 111.711V87.3359Z" fill="black"/>
<path d="M1134 0H1348C1356.28 0 1363 6.71573 1363 15V148C1363 156.284 1356.28 163 1348 163H1134V0Z" fill="#FF7EB9"/>
<path d="M1212.5 117.5L1212.5 45.5L1284.5 45.5L1284.5 117.5L1212.5 117.5Z" fill="white" fill-opacity="0.01"/>
<path d="M1221.5 81.5125L1221.5 108.5L1275.5 108.5L1275.5 81.5" stroke="white" stroke-width="7.24" stroke-linecap="round" stroke-linejoin="round"/>
<path d="M1262 68L1248.5 54.5L1235 68" stroke="white" stroke-width="7.24" stroke-linecap="round" stroke-linejoin="round"/>
<path d="M1248.49 93.5L1248.49 54.5" stroke="white" stroke-width="7.24" stroke-linecap="round" stroke-linejoin="round"/>
</svg>
