<svg width="1363" height="163" viewBox="0 0 1363 163" fill="none" xmlns="http://www.w3.org/2000/svg">
<path d="M0 15C0 6.71573 6.71573 0 15 0H37V163H15C6.71573 163 0 156.284 0 148V15Z" fill="#424242"/>
<rect width="1097" height="163" transform="translate(37)" fill="#F0F0F0"/>
<path d="M101.906 53.9219L94.3945 51.2383V48.0859L104.602 52.375V54.6367L101.906 53.9219ZM94.3945 56.1719L101.918 53.4297L104.602 52.7852V55.0352L94.3945 59.3242V56.1719ZM114.504 43.9375H117.48L121.863 56.4648L126.246 43.9375H129.223L123.059 61H120.668L114.504 43.9375ZM112.898 43.9375H115.863L116.402 56.1484V61H112.898V43.9375ZM127.863 43.9375H130.84V61H127.324V56.1484L127.863 43.9375ZM139.547 61.2344C138.562 61.2344 137.68 61.0781 136.898 60.7656C136.117 60.4453 135.453 60.0039 134.906 59.4414C134.367 58.8789 133.953 58.2266 133.664 57.4844C133.375 56.7344 133.23 55.9375 133.23 55.0938V54.625C133.23 53.6641 133.367 52.7852 133.641 51.9883C133.914 51.1914 134.305 50.5 134.812 49.9141C135.328 49.3281 135.953 48.8789 136.688 48.5664C137.422 48.2461 138.25 48.0859 139.172 48.0859C140.07 48.0859 140.867 48.2344 141.562 48.5312C142.258 48.8281 142.84 49.25 143.309 49.7969C143.785 50.3438 144.145 51 144.387 51.7656C144.629 52.5234 144.75 53.3672 144.75 54.2969V55.7031H134.672V53.4531H141.434V53.1953C141.434 52.7266 141.348 52.3086 141.176 51.9414C141.012 51.5664 140.762 51.2695 140.426 51.0508C140.09 50.832 139.66 50.7227 139.137 50.7227C138.691 50.7227 138.309 50.8203 137.988 51.0156C137.668 51.2109 137.406 51.4844 137.203 51.8359C137.008 52.1875 136.859 52.6016 136.758 53.0781C136.664 53.5469 136.617 54.0625 136.617 54.625V55.0938C136.617 55.6016 136.688 56.0703 136.828 56.5C136.977 56.9297 137.184 57.3008 137.449 57.6133C137.723 57.9258 138.051 58.168 138.434 58.3398C138.824 58.5117 139.266 58.5977 139.758 58.5977C140.367 58.5977 140.934 58.4805 141.457 58.2461C141.988 58.0039 142.445 57.6406 142.828 57.1562L144.469 58.9375C144.203 59.3203 143.84 59.6875 143.379 60.0391C142.926 60.3906 142.379 60.6797 141.738 60.9062C141.098 61.125 140.367 61.2344 139.547 61.2344ZM150.047 50.9453V61H146.66V48.3203H149.836L150.047 50.9453ZM149.578 54.2148H148.641C148.641 53.332 148.746 52.5195 148.957 51.7773C149.176 51.0273 149.492 50.3789 149.906 49.832C150.328 49.2773 150.848 48.8477 151.465 48.543C152.082 48.2383 152.797 48.0859 153.609 48.0859C154.172 48.0859 154.688 48.1719 155.156 48.3438C155.625 48.5078 156.027 48.7695 156.363 49.1289C156.707 49.4805 156.973 49.9414 157.16 50.5117C157.348 51.0742 157.441 51.75 157.441 52.5391V61H154.066V52.9141C154.066 52.3359 153.988 51.8906 153.832 51.5781C153.676 51.2656 153.453 51.0469 153.164 50.9219C152.883 50.7969 152.543 50.7344 152.145 50.7344C151.707 50.7344 151.324 50.8242 150.996 51.0039C150.676 51.1836 150.41 51.4336 150.199 51.7539C149.988 52.0664 149.832 52.4336 149.73 52.8555C149.629 53.2773 149.578 53.7305 149.578 54.2148ZM157.125 53.8281L155.918 53.9805C155.918 53.1523 156.02 52.3828 156.223 51.6719C156.434 50.9609 156.742 50.3359 157.148 49.7969C157.562 49.2578 158.074 48.8398 158.684 48.543C159.293 48.2383 159.996 48.0859 160.793 48.0859C161.402 48.0859 161.957 48.1758 162.457 48.3555C162.957 48.5273 163.383 48.8047 163.734 49.1875C164.094 49.5625 164.367 50.0547 164.555 50.6641C164.75 51.2734 164.848 52.0195 164.848 52.9023V61H161.461V52.9023C161.461 52.3164 161.383 51.8711 161.227 51.5664C161.078 51.2539 160.859 51.0391 160.57 50.9219C160.289 50.7969 159.953 50.7344 159.562 50.7344C159.156 50.7344 158.801 50.8164 158.496 50.9805C158.191 51.1367 157.938 51.3555 157.734 51.6367C157.531 51.918 157.379 52.2461 157.277 52.6211C157.176 52.9883 157.125 53.3906 157.125 53.8281ZM166.922 54.7891V54.543C166.922 53.6133 167.055 52.7578 167.32 51.9766C167.586 51.1875 167.973 50.5039 168.48 49.9258C168.988 49.3477 169.613 48.8984 170.355 48.5781C171.098 48.25 171.949 48.0859 172.91 48.0859C173.871 48.0859 174.727 48.25 175.477 48.5781C176.227 48.8984 176.855 49.3477 177.363 49.9258C177.879 50.5039 178.27 51.1875 178.535 51.9766C178.801 52.7578 178.934 53.6133 178.934 54.543V54.7891C178.934 55.7109 178.801 56.5664 178.535 57.3555C178.27 58.1367 177.879 58.8203 177.363 59.4062C176.855 59.9844 176.23 60.4336 175.488 60.7539C174.746 61.0742 173.895 61.2344 172.934 61.2344C171.973 61.2344 171.117 61.0742 170.367 60.7539C169.625 60.4336 168.996 59.9844 168.48 59.4062C167.973 58.8203 167.586 58.1367 167.32 57.3555C167.055 56.5664 166.922 55.7109 166.922 54.7891ZM170.297 54.543V54.7891C170.297 55.3203 170.344 55.8164 170.438 56.2773C170.531 56.7383 170.68 57.1445 170.883 57.4961C171.094 57.8398 171.367 58.1094 171.703 58.3047C172.039 58.5 172.449 58.5977 172.934 58.5977C173.402 58.5977 173.805 58.5 174.141 58.3047C174.477 58.1094 174.746 57.8398 174.949 57.4961C175.152 57.1445 175.301 56.7383 175.395 56.2773C175.496 55.8164 175.547 55.3203 175.547 54.7891V54.543C175.547 54.0273 175.496 53.543 175.395 53.0898C175.301 52.6289 175.148 52.2227 174.938 51.8711C174.734 51.5117 174.465 51.2305 174.129 51.0273C173.793 50.8242 173.387 50.7227 172.91 50.7227C172.434 50.7227 172.027 50.8242 171.691 51.0273C171.363 51.2305 171.094 51.5117 170.883 51.8711C170.68 52.2227 170.531 52.6289 170.438 53.0898C170.344 53.543 170.297 54.0273 170.297 54.543ZM188.801 43.9375H191.777L196.16 56.4648L200.543 43.9375H203.52L197.355 61H194.965L188.801 43.9375ZM187.195 43.9375H190.16L190.699 56.1484V61H187.195V43.9375ZM202.16 43.9375H205.137V61H201.621V56.1484L202.16 43.9375ZM214.852 58.1406V52.4922C214.852 52.0859 214.785 51.7383 214.652 51.4492C214.52 51.1523 214.312 50.9219 214.031 50.7578C213.758 50.5938 213.402 50.5117 212.965 50.5117C212.59 50.5117 212.266 50.5781 211.992 50.7109C211.719 50.8359 211.508 51.0195 211.359 51.2617C211.211 51.4961 211.137 51.7734 211.137 52.0938H207.762C207.762 51.5547 207.887 51.043 208.137 50.5586C208.387 50.0742 208.75 49.6484 209.227 49.2812C209.703 48.9062 210.27 48.6133 210.926 48.4023C211.59 48.1914 212.332 48.0859 213.152 48.0859C214.137 48.0859 215.012 48.25 215.777 48.5781C216.543 48.9062 217.145 49.3984 217.582 50.0547C218.027 50.7109 218.25 51.5312 218.25 52.5156V57.9414C218.25 58.6367 218.293 59.207 218.379 59.6523C218.465 60.0898 218.59 60.4727 218.754 60.8008V61H215.344C215.18 60.6562 215.055 60.2266 214.969 59.7109C214.891 59.1875 214.852 58.6641 214.852 58.1406ZM215.297 53.2773L215.32 55.1875H213.434C212.988 55.1875 212.602 55.2383 212.273 55.3398C211.945 55.4414 211.676 55.5859 211.465 55.7734C211.254 55.9531 211.098 56.1641 210.996 56.4062C210.902 56.6484 210.855 56.9141 210.855 57.2031C210.855 57.4922 210.922 57.7539 211.055 57.9883C211.188 58.2148 211.379 58.3945 211.629 58.5273C211.879 58.6523 212.172 58.7148 212.508 58.7148C213.016 58.7148 213.457 58.6133 213.832 58.4102C214.207 58.207 214.496 57.957 214.699 57.6602C214.91 57.3633 215.02 57.082 215.027 56.8164L215.918 58.2461C215.793 58.5664 215.621 58.8984 215.402 59.2422C215.191 59.5859 214.922 59.9102 214.594 60.2148C214.266 60.5117 213.871 60.7578 213.41 60.9531C212.949 61.1406 212.402 61.2344 211.77 61.2344C210.965 61.2344 210.234 61.0742 209.578 60.7539C208.93 60.4258 208.414 59.9766 208.031 59.4062C207.656 58.8281 207.469 58.1719 207.469 57.4375C207.469 56.7734 207.594 56.1836 207.844 55.668C208.094 55.1523 208.461 54.7188 208.945 54.3672C209.438 54.0078 210.051 53.7383 210.785 53.5586C211.52 53.3711 212.371 53.2773 213.34 53.2773H215.297ZM227.062 48.3203V50.7109H219.68V48.3203H227.062ZM221.508 45.1914H224.883V57.1797C224.883 57.5469 224.93 57.8281 225.023 58.0234C225.125 58.2188 225.273 58.3555 225.469 58.4336C225.664 58.5039 225.91 58.5391 226.207 58.5391C226.418 58.5391 226.605 58.5312 226.77 58.5156C226.941 58.4922 227.086 58.4688 227.203 58.4453L227.215 60.9297C226.926 61.0234 226.613 61.0977 226.277 61.1523C225.941 61.207 225.57 61.2344 225.164 61.2344C224.422 61.2344 223.773 61.1133 223.219 60.8711C222.672 60.6211 222.25 60.2227 221.953 59.6758C221.656 59.1289 221.508 58.4102 221.508 57.5195V45.1914ZM234.82 61.2344C233.836 61.2344 232.953 61.0781 232.172 60.7656C231.391 60.4453 230.727 60.0039 230.18 59.4414C229.641 58.8789 229.227 58.2266 228.938 57.4844C228.648 56.7344 228.504 55.9375 228.504 55.0938V54.625C228.504 53.6641 228.641 52.7852 228.914 51.9883C229.188 51.1914 229.578 50.5 230.086 49.9141C230.602 49.3281 231.227 48.8789 231.961 48.5664C232.695 48.2461 233.523 48.0859 234.445 48.0859C235.344 48.0859 236.141 48.2344 236.836 48.5312C237.531 48.8281 238.113 49.25 238.582 49.7969C239.059 50.3438 239.418 51 239.66 51.7656C239.902 52.5234 240.023 53.3672 240.023 54.2969V55.7031H229.945V53.4531H236.707V53.1953C236.707 52.7266 236.621 52.3086 236.449 51.9414C236.285 51.5664 236.035 51.2695 235.699 51.0508C235.363 50.832 234.934 50.7227 234.41 50.7227C233.965 50.7227 233.582 50.8203 233.262 51.0156C232.941 51.2109 232.68 51.4844 232.477 51.8359C232.281 52.1875 232.133 52.6016 232.031 53.0781C231.938 53.5469 231.891 54.0625 231.891 54.625V55.0938C231.891 55.6016 231.961 56.0703 232.102 56.5C232.25 56.9297 232.457 57.3008 232.723 57.6133C232.996 57.9258 233.324 58.168 233.707 58.3398C234.098 58.5117 234.539 58.5977 235.031 58.5977C235.641 58.5977 236.207 58.4805 236.73 58.2461C237.262 58.0039 237.719 57.6406 238.102 57.1562L239.742 58.9375C239.477 59.3203 239.113 59.6875 238.652 60.0391C238.199 60.3906 237.652 60.6797 237.012 60.9062C236.371 61.125 235.641 61.2344 234.82 61.2344Z" fill="#888888"/>
<path d="M114.117 84.875H122.344V107.164C122.344 109.82 121.789 112.07 120.68 113.914C119.57 115.742 118.016 117.125 116.016 118.062C114.016 119 111.664 119.469 108.961 119.469C106.289 119.469 103.938 119 101.906 118.062C99.8906 117.125 98.3125 115.742 97.1719 113.914C96.0469 112.07 95.4844 109.82 95.4844 107.164V84.875H103.734V107.164C103.734 108.57 103.938 109.719 104.344 110.609C104.75 111.484 105.344 112.125 106.125 112.531C106.906 112.938 107.852 113.141 108.961 113.141C110.086 113.141 111.031 112.938 111.797 112.531C112.562 112.125 113.141 111.484 113.531 110.609C113.922 109.719 114.117 108.57 114.117 107.164V84.875ZM134.906 99.0547V119H127.008V93.6406H134.414L134.906 99.0547ZM133.969 105.453L132.117 105.5C132.117 103.562 132.352 101.836 132.82 100.32C133.289 98.7891 133.953 97.4922 134.812 96.4297C135.672 95.3672 136.695 94.5625 137.883 94.0156C139.086 93.4531 140.422 93.1719 141.891 93.1719C143.062 93.1719 144.133 93.3438 145.102 93.6875C146.086 94.0312 146.93 94.5859 147.633 95.3516C148.352 96.1172 148.898 97.1328 149.273 98.3984C149.664 99.6484 149.859 101.195 149.859 103.039V119H141.914V103.016C141.914 102 141.773 101.227 141.492 100.695C141.211 100.148 140.805 99.7734 140.273 99.5703C139.742 99.3672 139.094 99.2656 138.328 99.2656C137.516 99.2656 136.828 99.4219 136.266 99.7344C135.703 100.047 135.25 100.484 134.906 101.047C134.578 101.594 134.336 102.242 134.18 102.992C134.039 103.742 133.969 104.562 133.969 105.453ZM162.586 93.6406V119H154.664V93.6406H162.586ZM154.195 87.1016C154.195 85.9766 154.602 85.0547 155.414 84.3359C156.227 83.6172 157.281 83.2578 158.578 83.2578C159.875 83.2578 160.93 83.6172 161.742 84.3359C162.555 85.0547 162.961 85.9766 162.961 87.1016C162.961 88.2266 162.555 89.1484 161.742 89.8672C160.93 90.5859 159.875 90.9453 158.578 90.9453C157.281 90.9453 156.227 90.5859 155.414 89.8672C154.602 89.1484 154.195 88.2266 154.195 87.1016ZM180.82 93.6406V99.125H165.539V93.6406H180.82ZM168.75 87.3359H176.648V110.727C176.648 111.398 176.727 111.922 176.883 112.297C177.039 112.656 177.305 112.914 177.68 113.07C178.07 113.211 178.586 113.281 179.227 113.281C179.68 113.281 180.055 113.273 180.352 113.258C180.648 113.227 180.93 113.188 181.195 113.141V118.789C180.523 119.008 179.82 119.172 179.086 119.281C178.352 119.406 177.57 119.469 176.742 119.469C175.055 119.469 173.609 119.203 172.406 118.672C171.219 118.141 170.312 117.305 169.688 116.164C169.062 115.023 168.75 113.539 168.75 111.711V87.3359ZM211.406 84.875V119H203.18V84.875H211.406ZM221.672 84.875V91.2266H193.148V84.875H221.672ZM234.961 119.469C232.898 119.469 231.055 119.148 229.43 118.508C227.805 117.852 226.43 116.953 225.305 115.812C224.195 114.672 223.344 113.359 222.75 111.875C222.172 110.391 221.883 108.82 221.883 107.164V106.273C221.883 104.414 222.141 102.695 222.656 101.117C223.172 99.5234 223.938 98.1328 224.953 96.9453C225.969 95.7578 227.242 94.8359 228.773 94.1797C230.305 93.5078 232.086 93.1719 234.117 93.1719C235.914 93.1719 237.523 93.4609 238.945 94.0391C240.367 94.6172 241.57 95.4453 242.555 96.5234C243.555 97.6016 244.312 98.9062 244.828 100.438C245.359 101.969 245.625 103.688 245.625 105.594V108.805H224.906V103.859H237.914V103.25C237.93 102.406 237.781 101.688 237.469 101.094C237.172 100.5 236.734 100.047 236.156 99.7344C235.578 99.4219 234.875 99.2656 234.047 99.2656C233.188 99.2656 232.477 99.4531 231.914 99.8281C231.367 100.203 230.938 100.719 230.625 101.375C230.328 102.016 230.117 102.758 229.992 103.602C229.867 104.445 229.805 105.336 229.805 106.273V107.164C229.805 108.102 229.93 108.953 230.18 109.719C230.445 110.484 230.82 111.141 231.305 111.688C231.805 112.219 232.398 112.633 233.086 112.93C233.789 113.227 234.586 113.375 235.477 113.375C236.555 113.375 237.617 113.172 238.664 112.766C239.711 112.359 240.609 111.688 241.359 110.75L244.945 115.016C244.43 115.75 243.695 116.461 242.742 117.148C241.805 117.836 240.68 118.398 239.367 118.836C238.055 119.258 236.586 119.469 234.961 119.469ZM262.125 111.875C262.125 111.438 261.977 111.062 261.68 110.75C261.398 110.422 260.898 110.125 260.18 109.859C259.461 109.578 258.453 109.297 257.156 109.016C255.922 108.75 254.758 108.398 253.664 107.961C252.586 107.523 251.641 106.992 250.828 106.367C250.016 105.742 249.375 105 248.906 104.141C248.453 103.281 248.227 102.297 248.227 101.188C248.227 100.109 248.453 99.0938 248.906 98.1406C249.375 97.1719 250.055 96.3203 250.945 95.5859C251.852 94.8359 252.953 94.25 254.25 93.8281C255.547 93.3906 257.023 93.1719 258.68 93.1719C260.961 93.1719 262.93 93.5234 264.586 94.2266C266.242 94.9141 267.516 95.8828 268.406 97.1328C269.312 98.3672 269.766 99.7969 269.766 101.422H261.867C261.867 100.781 261.758 100.234 261.539 99.7812C261.336 99.3281 261 98.9844 260.531 98.75C260.062 98.5 259.438 98.375 258.656 98.375C258.109 98.375 257.609 98.4766 257.156 98.6797C256.719 98.8828 256.367 99.1641 256.102 99.5234C255.836 99.8828 255.703 100.305 255.703 100.789C255.703 101.133 255.781 101.445 255.938 101.727C256.109 101.992 256.367 102.242 256.711 102.477C257.055 102.695 257.492 102.898 258.023 103.086C258.555 103.258 259.195 103.414 259.945 103.555C261.648 103.867 263.242 104.312 264.727 104.891C266.211 105.469 267.414 106.289 268.336 107.352C269.273 108.414 269.742 109.844 269.742 111.641C269.742 112.766 269.484 113.805 268.969 114.758C268.453 115.695 267.711 116.523 266.742 117.242C265.773 117.945 264.609 118.492 263.25 118.883C261.891 119.273 260.359 119.469 258.656 119.469C256.234 119.469 254.188 119.039 252.516 118.18C250.844 117.305 249.578 116.211 248.719 114.898C247.875 113.57 247.453 112.227 247.453 110.867H254.812C254.844 111.648 255.031 112.289 255.375 112.789C255.734 113.289 256.211 113.656 256.805 113.891C257.398 114.125 258.086 114.242 258.867 114.242C259.586 114.242 260.18 114.141 260.648 113.938C261.133 113.734 261.5 113.461 261.75 113.117C262 112.758 262.125 112.344 262.125 111.875ZM286.805 93.6406V99.125H271.523V93.6406H286.805ZM274.734 87.3359H282.633V110.727C282.633 111.398 282.711 111.922 282.867 112.297C283.023 112.656 283.289 112.914 283.664 113.07C284.055 113.211 284.57 113.281 285.211 113.281C285.664 113.281 286.039 113.273 286.336 113.258C286.633 113.227 286.914 113.188 287.18 113.141V118.789C286.508 119.008 285.805 119.172 285.07 119.281C284.336 119.406 283.555 119.469 282.727 119.469C281.039 119.469 279.594 119.203 278.391 118.672C277.203 118.141 276.297 117.305 275.672 116.164C275.047 115.023 274.734 113.539 274.734 111.711V87.3359ZM298.289 93.6406V119H290.367V93.6406H298.289ZM289.898 87.1016C289.898 85.9766 290.305 85.0547 291.117 84.3359C291.93 83.6172 292.984 83.2578 294.281 83.2578C295.578 83.2578 296.633 83.6172 297.445 84.3359C298.258 85.0547 298.664 85.9766 298.664 87.1016C298.664 88.2266 298.258 89.1484 297.445 89.8672C296.633 90.5859 295.578 90.9453 294.281 90.9453C292.984 90.9453 291.93 90.5859 291.117 89.8672C290.305 89.1484 289.898 88.2266 289.898 87.1016ZM310.922 99.0547V119H303.023V93.6406H310.43L310.922 99.0547ZM309.984 105.453L308.133 105.5C308.133 103.562 308.367 101.836 308.836 100.32C309.305 98.7891 309.969 97.4922 310.828 96.4297C311.688 95.3672 312.711 94.5625 313.898 94.0156C315.102 93.4531 316.438 93.1719 317.906 93.1719C319.078 93.1719 320.148 93.3438 321.117 93.6875C322.102 94.0312 322.945 94.5859 323.648 95.3516C324.367 96.1172 324.914 97.1328 325.289 98.3984C325.68 99.6484 325.875 101.195 325.875 103.039V119H317.93V103.016C317.93 102 317.789 101.227 317.508 100.695C317.227 100.148 316.82 99.7734 316.289 99.5703C315.758 99.3672 315.109 99.2656 314.344 99.2656C313.531 99.2656 312.844 99.4219 312.281 99.7344C311.719 100.047 311.266 100.484 310.922 101.047C310.594 101.594 310.352 102.242 310.195 102.992C310.055 103.742 309.984 104.562 309.984 105.453ZM346.195 93.6406H353.367V118.016C353.367 120.359 352.828 122.344 351.75 123.969C350.672 125.609 349.164 126.852 347.227 127.695C345.305 128.555 343.055 128.984 340.477 128.984C339.336 128.984 338.172 128.836 336.984 128.539C335.797 128.258 334.688 127.836 333.656 127.273C332.625 126.711 331.758 126.016 331.055 125.188L334.359 120.547C335 121.266 335.805 121.875 336.773 122.375C337.742 122.891 338.883 123.148 340.195 123.148C341.336 123.148 342.289 122.945 343.055 122.539C343.836 122.133 344.43 121.539 344.836 120.758C345.242 119.992 345.445 119.062 345.445 117.969V99.6406L346.195 93.6406ZM329.344 106.625V106.133C329.344 104.211 329.578 102.461 330.047 100.883C330.531 99.2891 331.219 97.9219 332.109 96.7812C333.016 95.625 334.109 94.7344 335.391 94.1094C336.672 93.4844 338.117 93.1719 339.727 93.1719C341.461 93.1719 342.883 93.5078 343.992 94.1797C345.117 94.8359 346.016 95.7578 346.688 96.9453C347.375 98.1328 347.906 99.5234 348.281 101.117C348.672 102.695 349 104.398 349.266 106.227V106.812C349 108.531 348.633 110.156 348.164 111.688C347.711 113.203 347.117 114.547 346.383 115.719C345.648 116.891 344.727 117.812 343.617 118.484C342.523 119.141 341.211 119.469 339.68 119.469C338.086 119.469 336.648 119.148 335.367 118.508C334.102 117.867 333.016 116.969 332.109 115.812C331.219 114.656 330.531 113.297 330.047 111.734C329.578 110.172 329.344 108.469 329.344 106.625ZM337.242 106.133V106.625C337.242 107.578 337.328 108.461 337.5 109.273C337.688 110.086 337.969 110.805 338.344 111.43C338.719 112.039 339.18 112.516 339.727 112.859C340.289 113.203 340.945 113.375 341.695 113.375C342.836 113.375 343.758 113.133 344.461 112.648C345.164 112.164 345.672 111.477 345.984 110.586C346.297 109.695 346.43 108.648 346.383 107.445V105.594C346.414 104.562 346.344 103.656 346.172 102.875C346 102.078 345.727 101.414 345.352 100.883C344.992 100.352 344.508 99.9531 343.898 99.6875C343.305 99.4062 342.586 99.2656 341.742 99.2656C341.008 99.2656 340.359 99.4375 339.797 99.7812C339.234 100.125 338.766 100.609 338.391 101.234C338.016 101.844 337.727 102.57 337.523 103.414C337.336 104.242 337.242 105.148 337.242 106.133Z" fill="black"/>
<path d="M1134 0H1348C1356.28 0 1363 6.71573 1363 15V148C1363 156.284 1356.28 163 1348 163H1134V0Z" fill="#28EEA7"/>
<path d="M1210.62 43.625H1286.38V119.375H1210.62V43.625Z" fill="white" fill-opacity="0.01"/>
<path d="M1276.91 72.0312V105.172C1276.91 107.787 1274.79 109.906 1272.17 109.906H1224.83C1222.21 109.906 1220.09 107.787 1220.09 105.172V57.8281C1220.09 55.2134 1222.21 53.0938 1224.83 53.0938H1261.12" stroke="white" stroke-width="7.24" stroke-linecap="round" stroke-linejoin="round"/>
<path d="M1232.72 75.1875L1248.5 87.8125L1276.91 53.0938" stroke="white" stroke-width="7.24" stroke-linecap="round" stroke-linejoin="round"/>
</svg>
